<?xml version="1.0" standalone="no"?>
<!DOCTYPE svg PUBLIC "-//W3C//DTD SVG 20010904//EN"
 "http://www.w3.org/TR/2001/REC-SVG-20010904/DTD/svg10.dtd">
<svg version="1.0" xmlns="http://www.w3.org/2000/svg"
 width="260.000000pt" height="260.000000pt" viewBox="0 0 260.000000 260.000000"
 preserveAspectRatio="xMidYMid meet">
<metadata>
Created by potrace 1.11, written by Peter Selinger 2001-2013
</metadata>
<g transform="translate(0.000000,260.000000) scale(0.100000,-0.100000)"
fill="#000000" stroke="none">
<path d="M1202 2442 c-119 -43 -187 -143 -184 -271 2 -102 89 -221 174 -238
l29 -6 -3 -91 -3 -91 -275 -1 c-224 0 -285 -3 -330 -17 -168 -50 -297 -210
-304 -379 l-3 -51 -49 -17 c-183 -59 -287 -245 -240 -430 17 -68 71 -158 110
-184 13 -8 29 -21 37 -28 8 -8 40 -25 72 -38 31 -13 57 -28 58 -34 13 -174
149 -330 324 -371 62 -15 1259 -17 1338 -3 171 31 326 204 336 375 1 7 17 16
36 22 192 53 299 282 230 491 -23 69 -95 146 -170 181 -33 16 -68 29 -77 29
-13 0 -18 8 -19 28 -5 205 -144 376 -340 416 -36 7 -157 11 -323 11 l-266 0
-1 25 c-2 25 -2 56 0 118 1 28 6 35 36 47 77 33 140 111 160 199 45 199 -159
377 -353 308z m152 -133 c53 -20 81 -65 81 -131 0 -49 -4 -61 -29 -87 -72 -75
-196 -45 -231 56 -36 106 70 202 179 162z m618 -716 c64 -19 139 -88 169 -155
23 -52 23 -58 24 -438 1 -212 -2 -392 -6 -400 -3 -8 -12 -37 -18 -65 -24 -101
-104 -182 -201 -204 -28 -7 -277 -11 -651 -11 -537 0 -613 2 -658 17 -65 21
-119 67 -156 134 l-30 54 0 430 c0 391 2 434 18 477 30 78 96 138 179 163 65
19 1264 18 1330 -2z m-1682 -653 l0 -211 -32 17 c-43 22 -77 59 -99 109 -38
83 -18 166 58 243 28 28 56 52 62 52 8 0 11 -68 11 -210z m2060 185 c53 -37
81 -93 87 -176 6 -85 -17 -140 -75 -180 -77 -53 -72 -64 -72 171 0 156 3 210
12 210 7 0 28 -11 48 -25z"/>
<path d="M725 1305 c-22 -8 -57 -32 -77 -56 -59 -65 -73 -141 -39 -214 49
-105 174 -155 269 -106 128 66 162 209 74 312 -62 72 -141 94 -227 64z m127
-155 c16 -21 17 -31 7 -57 -9 -29 -28 -42 -66 -49 -7 -1 -24 7 -38 18 -30 23
-34 72 -8 100 24 27 80 21 105 -12z"/>
<path d="M1720 1304 c-131 -58 -169 -216 -77 -320 94 -107 251 -93 330 29 24
37 32 115 17 161 -14 45 -62 101 -102 122 -43 22 -127 27 -168 8z m123 -141
c46 -52 4 -128 -63 -114 -47 9 -66 76 -33 113 21 23 75 24 96 1z"/>
<path d="M1080 694 c-29 -13 -45 -50 -33 -81 17 -45 26 -47 232 -48 108 0 206
1 219 4 54 9 66 95 17 121 -32 17 -396 20 -435 4z"/>
</g>
</svg>
